  <svg fill="none" xmlns="http://www.w3.org/2000/svg">
    <path
      d="M3.6332 23.0309H0.3479V0.660034H3.6332V10.62C4.52648 9.10003 6.47187 8.23094 8.63965 8.23094C10.8074 8.23094 12.4669 8.91276 13.9021 10.3091C15.3373 11.7055 16.0699 13.5364 16.0699 15.8019C16.0699 18.0673 15.3373 19.8364 13.8703 21.2328C12.4351 22.6291 10.6803 23.3419 8.60788 23.3419C6.53541 23.3419 4.52648 22.4419 3.6332 20.9219V23.0309ZM8.22665 20.2382C9.47125 20.2382 10.5551 19.8037 11.4148 18.9655C12.2763 18.1273 12.7229 17.0419 12.7229 15.7382C12.7229 13.1309 10.7775 11.3328 8.22665 11.3328C7.01381 11.3328 5.9617 11.7364 5.03665 12.5419C4.11161 13.3182 3.66497 14.4037 3.66497 15.7382C3.66497 18.4691 5.6739 20.2382 8.22478 20.2382H8.22665Z"
      fill="#1436F5"
    />
    <path
      d="M29.8557 23.031V20.9528C28.9307 22.4419 26.7947 23.3419 24.8493 23.3419C22.7768 23.3419 20.9903 22.6291 19.4915 21.2328C18.0245 19.8364 17.292 18.0055 17.292 15.771C17.292 13.5364 18.0245 11.7364 19.4915 10.3419C20.9903 8.9455 22.7768 8.23096 24.8493 8.23096C26.7947 8.23096 28.8672 9.06914 29.8557 10.5891V8.54187H33.1093V23.031H29.8557ZM28.4205 12.5437C27.4955 11.7364 26.4434 11.3346 25.2305 11.3346C23.956 11.3346 22.8703 11.7382 21.9789 12.5764C21.1174 13.3837 20.6707 14.4382 20.6707 15.7419C20.6707 17.0455 21.1174 18.131 21.9789 18.9691C22.8721 19.8073 23.956 20.2419 25.2305 20.2419C27.7814 20.2419 29.824 18.4728 29.824 15.7419C29.824 14.4073 29.3456 13.3219 28.4205 12.5455V12.5437Z"
      fill="#1436F5"
    />
    <path
      d="M38.7531 23.031H35.4678V8.54005H38.7531V10.7128C39.551 9.13096 41.5282 8.23096 43.3129 8.23096C46.9159 8.23096 48.9902 10.4964 48.9902 14.5928V23.0328H45.7049V14.9655C45.7049 12.7 44.4921 11.3655 42.5785 11.3655C40.4107 11.3655 38.7512 12.6073 38.7512 15.2437V23.0328L38.7531 23.031Z"
      fill="#1436F5"
    />
    <path
      d="M57.2186 14.8396L63.565 8.53955H59.164L54.4435 13.3196V8.53955H51.1899V23.0286H54.4435V16.2959L60.7898 23.0286H65.0002L57.2167 14.8377L57.2186 14.8396Z"
      fill="#1436F5"
    />
  </svg>