<svg width="18" height="20" viewBox="0 0 18 20" xmlns="http://www.w3.org/2000/svg">
<path d="M9.0001 19.6C10.3267 19.6 11.4001 18.5266 11.4001 17.2H6.6001C6.6001 18.5266 7.67353 19.6 9.0001 19.6ZM17.0767 13.9844C16.3548 13.2063 14.9954 12.0344 14.9954 8.20003C14.9954 5.2844 12.9563 2.95471 10.2001 2.38284V1.60002C10.2001 0.939087 9.66103 0.400024 9.0001 0.400024C8.33916 0.400024 7.8001 0.939087 7.8001 1.60002V2.38284C5.04385 2.95471 3.00478 5.2844 3.00478 8.20003C3.00478 12.0344 1.64541 13.2063 0.923535 13.9844C0.698535 14.2282 0.600098 14.5188 0.600098 14.8C0.604785 15.4141 1.0876 16 1.80478 16H16.1954C16.9126 16 17.3954 15.4141 17.4001 14.8C17.4001 14.5188 17.3017 14.2282 17.0767 13.9844Z" />
</svg>
