<svg  fill="none" xmlns="http://www.w3.org/2000/svg">
    <path
      d="M24.7111 0.467163L23.0797 3.15444L22.8667 3.50898C27.0172 4.22534 30.1736 7.75807 30.1736 11.9999C30.1736 16.7581 26.1949 20.6326 21.3044 20.6326H12.4613L12.3268 20.8508L10.4094 23.9999H21.3044C28.1179 23.9999 33.6364 18.6253 33.6364 11.9981C33.6364 6.51989 29.8671 1.89989 24.7111 0.467163Z"
      fill="#1436F5"
    />
    <path
      d="M4.315 15.8055L11.8723 3.36909L12.0031 3.15455L13.9205 0H10.2278L8.31043 3.15455L8.18149 3.36909L4.315 9.73273L3.21242 11.5473L1.07268 15.0673L0 16.8327H3.68709L4.315 15.8055Z"
      fill="#1436F5"
    />
    <path
      d="M19.3862 3.15455L21.3055 0H17.6128L15.6954 3.15455L15.5646 3.36909L5.07706 20.6309L4.94251 20.8509L3.02515 24H6.71784L8.6352 20.8509L8.76975 20.6309L19.2573 3.36909L19.3862 3.15455Z"
      fill="#1436F5"
    />
  </svg>