<svg fill="none" xmlns="http://www.w3.org/2000/svg">
    <path
      d="M52.0915 1.01221L48.6525 6.83463L48.2034 7.60281C56.9528 9.15493 63.6064 16.8092 63.6064 25.9998C63.6064 36.3092 55.2194 44.704 44.91 44.704H26.2688L25.9852 45.1768L21.9434 51.9998H44.91C59.2731 51.9998 70.9061 40.3549 70.9061 25.9958C70.9061 14.1264 62.9603 4.11645 52.0915 1.01221Z"
      fill="white"
    />
    <path
      d="M9.09606 34.2452L25.027 7.2997L25.3027 6.83485L29.3445 0H21.5603L17.5185 6.83485L17.2467 7.2997L9.09606 21.0876L6.77182 25.0191L2.26121 32.6458L0 36.4709H7.77242L9.09606 34.2452Z"
      fill="white"
    />
    <path
      d="M40.8676 6.83485L44.9133 0H37.1291L33.0873 6.83485L32.8115 7.2997L10.7036 44.7003L10.42 45.177L6.37817 52H14.1624L18.2042 45.177L18.4879 44.7003L40.5958 7.2997L40.8676 6.83485Z"
      fill="white"
    />
    <path
      d="M81.4394 49.9002H74.5139V1.42993H81.4394V23.0099C83.3224 19.7166 87.4233 17.8336 91.993 17.8336C96.5627 17.8336 100.061 19.3108 103.086 22.3363C106.112 25.3617 107.656 29.3287 107.656 34.2372C107.656 39.1457 106.112 42.9787 103.019 46.0042C99.9939 49.0296 96.2948 50.5739 91.926 50.5739C87.5573 50.5739 83.3224 48.6239 81.4394 45.3305V49.9002ZM91.1224 43.8493C93.746 43.8493 96.0309 42.9078 97.843 41.0917C99.6591 39.2757 100.601 36.9239 100.601 34.0993C100.601 28.4502 96.4997 24.5542 91.1224 24.5542C88.5657 24.5542 86.3479 25.4287 84.3979 27.1739C82.4479 28.856 81.5063 31.2078 81.5063 34.0993C81.5063 40.0163 85.7412 43.8493 91.1185 43.8493H91.1224Z"
      fill="white"
    />
    <path
      d="M136.717 49.9002V45.3974C134.767 48.6238 130.264 50.5738 126.163 50.5738C121.794 50.5738 118.028 49.0296 114.869 46.0041C111.776 42.9786 110.232 39.0117 110.232 34.1702C110.232 29.3286 111.776 25.4286 114.869 22.4071C118.028 19.3817 121.794 17.8335 126.163 17.8335C130.264 17.8335 134.633 19.6496 136.717 22.9429V18.5071H143.575V49.9002H136.717ZM133.691 27.1777C131.741 25.4286 129.523 24.558 126.967 24.558C124.28 24.558 121.991 25.4326 120.112 27.2486C118.296 28.9977 117.355 31.2826 117.355 34.1071C117.355 36.9317 118.296 39.2835 120.112 41.0996C121.995 42.9156 124.28 43.8571 126.967 43.8571C132.344 43.8571 136.65 40.0241 136.65 34.1071C136.65 31.2156 135.641 28.8638 133.691 27.1817V27.1777Z"
      fill="white"
    />
    <path
      d="M155.473 49.9002H148.547V18.5032H155.473V23.2108C157.155 19.7835 161.323 17.8335 165.085 17.8335C172.68 17.8335 177.053 22.742 177.053 31.6174V49.9041H170.127V32.425C170.127 27.5165 167.571 24.625 163.537 24.625C158.967 24.625 155.469 27.3156 155.469 33.0277V49.9041L155.473 49.9002Z"
      fill="white"
    />
    <path
      d="M194.397 32.1524L207.776 18.5024H198.498L188.547 28.8591V18.5024H181.689V49.8955H188.547V35.3079L201.926 49.8955H210.801L194.394 32.1485L194.397 32.1524Z"
      fill="white"
    />
  </svg>