<svg xmlns="http://www.w3.org/2000/svg">
<path d="M20.4411 16.2353H9.32341V15.7059C9.32341 15.4147 9.08518 15.1765 8.794 15.1765H7.73518C7.444 15.1765 7.20577 15.4147 7.20577 15.7059V16.2353H4.55871C4.26753 16.2353 4.0293 16.4735 4.0293 16.7647V17.8235C4.0293 18.1147 4.26753 18.3529 4.55871 18.3529H7.20577V18.8823C7.20577 19.1735 7.444 19.4118 7.73518 19.4118H8.794C9.08518 19.4118 9.32341 19.1735 9.32341 18.8823V18.3529H20.4411C20.7322 18.3529 20.9705 18.1147 20.9705 17.8235V16.7647C20.9705 16.4735 20.7322 16.2353 20.4411 16.2353ZM20.4411 10.9412H17.794V10.4118C17.794 10.1206 17.5558 9.88234 17.2646 9.88234H16.2058C15.9146 9.88234 15.6764 10.1206 15.6764 10.4118V10.9412H4.55871C4.26753 10.9412 4.0293 11.1794 4.0293 11.4706V12.5294C4.0293 12.8206 4.26753 13.0588 4.55871 13.0588H15.6764V13.5882C15.6764 13.8794 15.9146 14.1176 16.2058 14.1176H17.2646C17.5558 14.1176 17.794 13.8794 17.794 13.5882V13.0588H20.4411C20.7322 13.0588 20.9705 12.8206 20.9705 12.5294V11.4706C20.9705 11.1794 20.7322 10.9412 20.4411 10.9412ZM20.4411 5.64705H13.5587V5.11764C13.5587 4.82646 13.3205 4.58823 13.0293 4.58823H11.9705C11.6793 4.58823 11.4411 4.82646 11.4411 5.11764V5.64705H4.55871C4.26753 5.64705 4.0293 5.88529 4.0293 6.17646V7.23528C4.0293 7.52646 4.26753 7.7647 4.55871 7.7647H11.4411V8.29411C11.4411 8.58528 11.6793 8.82352 11.9705 8.82352H13.0293C13.3205 8.82352 13.5587 8.58528 13.5587 8.29411V7.7647H20.4411C20.7322 7.7647 20.9705 7.52646 20.9705 7.23528V6.17646C20.9705 5.88529 20.7322 5.64705 20.4411 5.64705Z" fill="#8C8C8C"/>
</svg>
