<svg  xmlns="http://www.w3.org/2000/svg">
<path d="M19.9412 16.2353H8.82354V15.7059C8.82354 15.4147 8.5853 15.1765 8.29413 15.1765H7.2353C6.94413 15.1765 6.70589 15.4147 6.70589 15.7059V16.2353H4.05883C3.76765 16.2353 3.52942 16.4735 3.52942 16.7647V17.8235C3.52942 18.1147 3.76765 18.3529 4.05883 18.3529H6.70589V18.8823C6.70589 19.1735 6.94413 19.4118 7.2353 19.4118H8.29413C8.5853 19.4118 8.82354 19.1735 8.82354 18.8823V18.3529H19.9412C20.2324 18.3529 20.4706 18.1147 20.4706 17.8235V16.7647C20.4706 16.4735 20.2324 16.2353 19.9412 16.2353ZM19.9412 10.9412H17.2941V10.4118C17.2941 10.1206 17.0559 9.88234 16.7647 9.88234H15.7059C15.4147 9.88234 15.1765 10.1206 15.1765 10.4118V10.9412H4.05883C3.76765 10.9412 3.52942 11.1794 3.52942 11.4706V12.5294C3.52942 12.8206 3.76765 13.0588 4.05883 13.0588H15.1765V13.5882C15.1765 13.8794 15.4147 14.1176 15.7059 14.1176H16.7647C17.0559 14.1176 17.2941 13.8794 17.2941 13.5882V13.0588H19.9412C20.2324 13.0588 20.4706 12.8206 20.4706 12.5294V11.4706C20.4706 11.1794 20.2324 10.9412 19.9412 10.9412ZM19.9412 5.64705H13.0588V5.11764C13.0588 4.82646 12.8206 4.58823 12.5294 4.58823H11.4706C11.1794 4.58823 10.9412 4.82646 10.9412 5.11764V5.64705H4.05883C3.76765 5.64705 3.52942 5.88529 3.52942 6.17646V7.23528C3.52942 7.52646 3.76765 7.7647 4.05883 7.7647H10.9412V8.29411C10.9412 8.58528 11.1794 8.82352 11.4706 8.82352H12.5294C12.8206 8.82352 13.0588 8.58528 13.0588 8.29411V7.7647H19.9412C20.2324 7.7647 20.4706 7.52646 20.4706 7.23528V6.17646C20.4706 5.88529 20.2324 5.64705 19.9412 5.64705Z" fill="#2F54EB"/>
</svg>
