 <svg xmlns="http://www.w3.org/2000/svg">
    <path
      d="M0.87641 490.981L42.0625 421.309L125.109 280.891L124.679 280.637L125.109 280.891L167.902 208.506L317.966 -45.3479L317.967 -45.3499L322.97 -53.9063L322.972 -53.9084L397.241 -179.5H539.398L465.429 -54.4159L465.428 -54.4153L460.352 -45.8574L460.351 -45.8568L167.042 450.246L167.041 450.247L142.817 490.981H0.87641Z"
      stroke="white"
    />
    <path
      d="M751.995 -54.4155L751.993 -54.4132L746.99 -45.8567L746.989 -45.8547L339.954 642.74L339.953 642.741L334.731 651.516L334.731 651.517L260.461 776.893H118.304L192.272 652.027L192.273 652.026L197.494 643.251L197.495 643.25L604.532 -45.3472L604.532 -45.3479L609.609 -53.9057L609.609 -53.9063L683.879 -179.5H826.036L751.995 -54.4155Z"
      stroke="white"
    />
  </svg>