<svg width="12" height="12" viewBox="0 0 12 12" xmlns="http://www.w3.org/2000/svg">
<path d="M5.99989 0.529419C2.97783 0.529419 0.529297 2.97795 0.529297 6.00001C0.529297 9.02207 2.97783 11.4706 5.99989 11.4706C9.02194 11.4706 11.4705 9.02207 11.4705 6.00001C11.4705 2.97795 9.02194 0.529419 5.99989 0.529419ZM5.99989 2.64707C7.07194 2.64707 7.94106 3.51618 7.94106 4.58824C7.94106 5.6603 7.07194 6.52942 5.99989 6.52942C4.92783 6.52942 4.05871 5.6603 4.05871 4.58824C4.05871 3.51618 4.92783 2.64707 5.99989 2.64707ZM5.99989 10.2353C4.70503 10.2353 3.54474 9.64854 2.76827 8.73089C3.18297 7.95001 3.99474 7.41177 4.94106 7.41177C4.994 7.41177 5.04694 7.4206 5.09768 7.43604C5.38444 7.52868 5.68444 7.58824 5.99989 7.58824C6.31533 7.58824 6.61753 7.52868 6.90209 7.43604C6.95283 7.4206 7.00577 7.41177 7.05871 7.41177C8.00503 7.41177 8.8168 7.95001 9.2315 8.73089C8.45503 9.64854 7.29474 10.2353 5.99989 10.2353Z" />
</svg>
