<svg width="10" height="12" viewBox="0 0 10 12" xmlns="http://www.w3.org/2000/svg">
<path d="M5.00001 5.99996C6.55957 5.99996 7.82354 4.73599 7.82354 3.17643C7.82354 1.61688 6.55957 0.352905 5.00001 0.352905C3.44046 0.352905 2.17649 1.61688 2.17649 3.17643C2.17649 4.73599 3.44046 5.99996 5.00001 5.99996ZM6.97649 6.70585H6.6081C6.1184 6.93085 5.57354 7.05879 5.00001 7.05879C4.42649 7.05879 3.88384 6.93085 3.39193 6.70585H3.02354C1.38678 6.70585 0.0588379 8.03379 0.0588379 9.67055V10.5882C0.0588379 11.1728 0.533103 11.647 1.11766 11.647H8.88237C9.46693 11.647 9.94119 11.1728 9.94119 10.5882V9.67055C9.94119 8.03379 8.61325 6.70585 6.97649 6.70585Z" />
</svg>
